<svg width="39" height="39" viewBox="0 0 39 39" fill="none" xmlns="http://www.w3.org/2000/svg">
<rect x="2" y="2" width="35" height="35" rx="4" stroke="#DBA43E" stroke-width="4" stroke-linejoin="round"/>
<path d="M8.35426 30V15.21H12.7043V30H8.35426ZM8.20926 13.238V8.54H12.8493V13.238H8.20926ZM16.1707 30V15.21H20.4337V18.69H20.5207V30H16.1707ZM26.4657 30V20.836C26.4657 20.024 26.253 19.415 25.8277 19.009C25.4217 18.603 24.8223 18.4 24.0297 18.4C23.353 18.4 22.744 18.5547 22.2027 18.864C21.6807 19.1733 21.265 19.5987 20.9557 20.14C20.6657 20.6813 20.5207 21.3193 20.5207 22.054L20.1437 18.487C20.627 17.4043 21.3327 16.544 22.2607 15.906C23.208 15.2487 24.368 14.92 25.7407 14.92C27.384 14.92 28.6407 15.384 29.5107 16.312C30.3807 17.2207 30.8157 18.4483 30.8157 19.995V30H26.4657Z" fill="#DBA43E"/>
</svg>
