<svg width="39" height="39" viewBox="0 0 39 39" fill="none" xmlns="http://www.w3.org/2000/svg">
<rect x="2" y="2" width="35" height="35" rx="4" stroke="#DBA43E" stroke-width="4" stroke-linejoin="round"/>
<path d="M10.4235 26.23C9.59554 26.23 8.88254 26.0537 8.28454 25.701C7.70187 25.333 7.2572 24.85 6.95054 24.252C6.64387 23.6387 6.49054 22.9563 6.49054 22.205V14.27H9.94054V21.538C9.94054 22.182 10.1015 22.665 10.4235 22.987C10.7455 23.309 11.1979 23.47 11.7805 23.47C12.3019 23.47 12.7619 23.3473 13.1605 23.102C13.5592 22.8567 13.8735 22.5193 14.1035 22.09C14.3489 21.6453 14.4715 21.1393 14.4715 20.572L14.7705 23.401C14.3872 24.2443 13.8275 24.9267 13.0915 25.448C12.3555 25.9693 11.4662 26.23 10.4235 26.23ZM14.5405 26V23.24H14.4715V14.27H17.9215V26H14.5405ZM27.8421 26.23C26.7227 26.23 25.8257 25.9693 25.1511 25.448C24.4764 24.9267 24.0777 24.2137 23.9551 23.309L24.1391 23.286V30.715H20.6891V14.27H24.0701V16.869L23.8631 16.823C24.0317 15.9643 24.4917 15.2897 25.2431 14.799C25.9944 14.293 26.9221 14.04 28.0261 14.04C29.0841 14.04 29.9964 14.293 30.7631 14.799C31.5451 15.2897 32.1431 15.9873 32.5571 16.892C32.9864 17.7967 33.2011 18.8623 33.2011 20.089C33.2011 21.331 32.9787 22.412 32.5341 23.332C32.0894 24.252 31.4684 24.965 30.6711 25.471C29.8737 25.977 28.9307 26.23 27.8421 26.23ZM26.8761 23.47C27.6887 23.47 28.3481 23.1787 28.8541 22.596C29.3601 22.0133 29.6131 21.1853 29.6131 20.112C29.6131 19.0387 29.3524 18.2183 28.8311 17.651C28.3251 17.0837 27.6581 16.8 26.8301 16.8C26.0327 16.8 25.3734 17.0913 24.8521 17.674C24.3461 18.2413 24.0931 19.0617 24.0931 20.135C24.0931 21.2083 24.3461 22.0363 24.8521 22.619C25.3734 23.1863 26.0481 23.47 26.8761 23.47Z" fill="#DBA43E"/>
</svg>
